<svg height="512" viewBox="0 0 512 512" width="512" xmlns="http://www.w3.org/2000/svg"><g id="flat"><path d="m112 406.379-40-40-16-72 13.191-85.744a21.53 21.53 0 0 1 21.28-18.256 21.529 21.529 0 0 1 21.529 21.53v66.47l56 72z" fill="#fdc9a6"/><path d="m208 368-.443-.985c-10.741-23.869-34.381-39.7-60.554-39.558q-1.092.006-2.185.044l-33.33-40.931a22.226 22.226 0 0 0 -17.233-8.191 22.224 22.224 0 0 0 -19.51 32.866l30.073 55.134z" fill="#f6bb92"/><circle cx="256" cy="166.379" fill="#6ee7f5" r="112"/><path d="m368 166.38a111.591 111.591 0 1 1 -11.96-50.41 111.471 111.471 0 0 1 11.96 50.41z" fill="#6ee7f5"/><g fill="#02a437"><path d="m200 222.379 8-24-8-16 16-16h24l24 16 24 8-16 32-40 24z"/><path d="m256 86.38-24 8-8 16-32 8 8 24-16 16-30.24-37.8a112.068 112.068 0 0 1 86.77-65.13z"/><path d="m368 166.38a111.471 111.471 0 0 1 -9.18 44.46l-14.82-44.46-16 16-24-16-8-32 8-16 24 8 16-8 12.04-2.41a111.532 111.532 0 0 1 11.96 50.41z"/><path d="m341.79 94.38h-45.79l-8-16v-19.35a111.918 111.918 0 0 1 53.79 35.35z"/></g><path d="m232 486.379v-81.5a73.625 73.625 0 0 0 -21.565-52.062l-3.794-3.794a73.628 73.628 0 0 0 -54.641-21.523l-33.33-40.93a22.226 22.226 0 0 0 -17.233-8.191 22.224 22.224 0 0 0 -19.51 32.866l30.073 55.134v40l40 32v48z" fill="#fdc9a6"/><path d="m400 406.379 40-40 16-72-13.191-85.744a21.53 21.53 0 0 0 -21.28-18.256 21.529 21.529 0 0 0 -21.529 21.53v66.47l-56 72z" fill="#fdc9a6"/><path d="m304 368 .443-.985c10.741-23.869 34.381-39.7 60.554-39.558q1.092.006 2.185.044l33.33-40.931a22.226 22.226 0 0 1 17.233-8.191 22.224 22.224 0 0 1 19.51 32.866l-30.073 55.134z" fill="#f6bb92"/><path d="m280 486.379v-81.5a73.625 73.625 0 0 1 21.565-52.062l3.794-3.794a73.628 73.628 0 0 1 54.641-21.523l33.33-40.931a22.226 22.226 0 0 1 17.233-8.191 22.224 22.224 0 0 1 19.51 32.866l-30.073 55.135v40l-40 32v48z" fill="#fdc9a6"/></g></svg>